<svg xmlns="http://www.w3.org/2000/svg" width="220.257" height="167.749" viewBox="0 0 220.257 167.749"><defs><style>.a{fill:#095169;}</style></defs><g transform="translate(-1524.081 1200.469)"><path class="a" d="M380.639,552.215c-1.186-.673-2.339-1.346-3.749-2.147-.128,1.282-.256,2.468-.352,3.653-1.154-2.564-1.763-5.48-5.576-4.743-2.243-3.589-4.1-.737-6.281.16-1.282.513-2.948.1-4.967.1.769.993,1.442,1.859,2.211,2.884-2.275.288-3.333-.833-3.237-2.788.064-1.987,1.506-1.6,3.044-1.6,1.666,0,3.3-1.026,5-1.282a11.875,11.875,0,0,1,4.1.256c1.634.385,3.269,1.6,4.807,1.474,2.083-.192,4.07-1.378,6.089-2.115a4.69,4.69,0,0,1,1.955-.577,5.771,5.771,0,0,0,5.9-2.564c1.634-2.692,4.39-3.173,6.665-4.615a4.539,4.539,0,0,0,2.019-3.044c.385-9.614.577-19.227.705-28.841.032-1.25-.449-2.5-.032-3.589.449-1.474,1.25-2.916,1.282-4.39.064-4.647-.385-9.261-.192-13.908.192-4.743.929-9.486,1.346-14.228.224-2.564-.064-5.191.352-7.723.865-5.352-1.41-9.55-4.262-13.748a30.554,30.554,0,0,1-3.076-6.345c-.16-.385.993-1.795,1.666-1.859a52.86,52.86,0,0,1,6.505-.1c0-2.884-.1-5.7.064-8.492.032-.737.769-1.442,1.154-2.179a5.464,5.464,0,0,0,.833-1.955c.1-2.179.032-4.358.032-7.114,2.628,0,5.159-.1,7.691.032,2.115.1,2.724-.769,2.756-2.788.1-5.736.385-11.44.609-17.593h11.472a60.528,60.528,0,0,0,6.826-.1c.865-.1,1.634-1.122,2.5-1.634a7.863,7.863,0,0,1,2.884-1.346c3.781-.353,7.755.385,11.216-1.891a26.987,26.987,0,0,0,2.5-1.474,11.191,11.191,0,0,1,13.716-.961,20.121,20.121,0,0,0,15,4.038c2.371-.32,3.877.256,3.781,3.173h20.477c.385,5.64.961,11.088,1.026,16.5.032,2.884.8,3.91,3.717,3.557a54.969,54.969,0,0,1,6.473-.064c1.57,3.269-1.57,7.338,2.916,9.9.128,2.884.288,6.313.481,10,1.538,0,2.916-.1,4.262.032a24.408,24.408,0,0,1,3.3.737,14.1,14.1,0,0,1-.993,3.589c-1.442,2.564-3.237,4.935-4.711,7.467a8.294,8.294,0,0,0-1.089,3.845c0,8.044.128,16.055.32,24.1.032,1.122.8,2.243,1.186,3.365a3.369,3.369,0,0,1,.256,1.09c.032,4.615-.032,9.261.128,13.876.032.929,1.057,1.794,1.474,2.756a4.042,4.042,0,0,1,.481,1.987c-.224,1.923-.993,3.845-.9,5.7.481,10.8,1.154,21.6,1.859,32.366.064.961.929,1.891,1.634,3.2,2.435-3.942,5.288-5.319,9.037-4.711.192.032.417.128.577.064,6.217-2.211,11.344,2.339,17.144,2.82.833.064,1.6,1.154,2.692,1.987-4.358-.865-8.044-1.57-11.729-2.275l.1-.673c-.609.417-1.25.8-1.891,1.218-1.923-3.333-2.243-3.4-5.864-1.795a3.255,3.255,0,0,1-1.891.256c-3.365-.769-5.287.32-6.281,3.749-2.884.32-4.07,4.166-2.468,7.435a20.9,20.9,0,0,1,1.122,4.326c-.385.1-.737.16-1.122.256-.192-.865-.385-1.7-.609-2.724-2.051-.609-3.845-.737-4.39,2.468-.833-3.429-2.884-3.749-5.608-2.756-.128.769-.288,1.6-.449,2.6-2.564-3.589-6.505-3.557-8.428.16-.577-3.4-3.012-2.5-4.935-2.371a7,7,0,0,0-2.6,1.25c-1.474-.609-3.141-1.314-5-2.083-.449,1.378-.705,2.179-1.186,3.685-.352-1.442-.577-2.307-.769-3.172-3.685-.929-4.615-.545-5.768,2.756-.32-.9-.385-1.634-.769-1.987a4.911,4.911,0,0,0-2.339-1.314c-.481-.064-1.25.673-1.6,1.218a30.85,30.85,0,0,0-1.666,3.237c-.513-1.154-.993-2.339-1.41-3.333-.481-.352-.993-.705-1.442-1.09-.673-.577-1.25-1.57-1.987-1.666-2.4-.352-4.871-.352-7.723-.545.417-1.346.673-2.243.8-2.6,3.3.673,6.249,1.25,9.453,1.923.064-1.442.16-2.307.16-3.2q-.144-23.217-.353-46.434c-.032-2.82.128-5.7-2.275-8.011-.577-.545-.417-2.275-.1-3.333,1.122-3.813-.1-6.858-2.788-9.421a17.6,17.6,0,0,0-27.047,3.525c-1.09,1.73-1.506,3.429-.417,5.287,1.218,2.115.737,3.878-.993,5.608a4.433,4.433,0,0,0-1.122,2.884c-.192,15.863-.288,31.725-.417,47.62a1.465,1.465,0,0,0,.16.449c1.955.16,4.134-.192,5.736.609s2.6,2.724,3.589,4.775c-.737-.32-1.763-.449-2.147-1.026-.9-1.346-2.275-1.474-3.589-1.859-1.763-.545-3.493-1.122-2.756,1.955.064.224-.449.577-.961,1.25,2.115-.513,3.845-.929,5.608-1.378.128.256.288.481.417.737-3.525,1.634-7.787,2.724-5.993,8.268-2.307-.385-4.1-.481-3.91-3.237.032-.513-.961-1.09-1.474-1.666a9.255,9.255,0,0,0-1.73,1.827c-.32.577-.256,1.41-.9,2.115-.16-1.122-.32-2.243-.481-3.4-2.211-.513-2.211-.513-2.66,3.557-2.4-1.41-2.916-5.768-6.858-4.23-.224,1.218-.481,2.532-.737,3.845-.256,0-.513-.032-.769-.032-.224-.9-.481-1.763-.769-2.82-1.763-.128-3.525-.224-5.384-.352-.352,1.025-.673,1.891-1.218,3.493-.9-4.166-3.4-4.358-6.089-3.749-.609,1.09-1.122,2.051-1.314,2.4-1.7-.9-2.852-1.923-4.038-1.987-.929-.064-1.955,1.058-3.621,2.083.032.032-.609-.513-1.218-1.09-.545-.545-.993-1.122-1.506-1.7-.353.7-.705,1.442-1.058,2.147a1.046,1.046,0,0,1-.609.641c.352-5.608.7-11.184,1.09-16.792-.32-.16-.609-.352-.929-.513-1.154,2.564-6.217,0-5.352,5.288-2.147-.577-3.557-.16-3.333,1.57-3.429.865-6.537,1.634-9.71,2.4.641,1.314,1.154,2.435,1.7,3.525Zm48.87-137.54c3.493,3.2,6.313,3.942,8.043,1.346,1.634-2.435,1.987-5.672,3.14-9.229,0,3.173.032,5.768,0,8.4-.032,1.474.288,2.435,2.115,2.435,12.113-.1,24.195-.1,36.308-.224a2.444,2.444,0,0,0,1.795-1.634c.192-2.532.1-5.1.1-8.172H444.089v-.737c11.889,0,23.778-.032,35.667.064.961,0,1.955.865,3.2,1.442,2.435-1.762,4.551-2.179,7.242-1.25,4.839,1.7,9.71.673,14.773.673a28.435,28.435,0,0,1,.032-3.365c.32-2.339-.609-3.076-2.98-3.076-27.271.16-54.542.192-81.813.288-.961,0-1.923.16-2.82.224-1.154,5.416-.961,5.608,4.2,5.608h9.774c-.641,2.6-1.218,4.9-1.795,7.242-.128-1.891-.288-3.781-.417-5.736H416.369v11.7h3.076l78.544-.385c8.909-.032,8.909,0,8.108-8.941-.032-.192.064-.481-.064-.577-.545-.545-1.122-1.442-1.7-1.474-3.621-.128-7.274-.064-11.088-.064.545,3.813.256,7.05-3.429,8.909-3.237,1.634-5.127-.8-7.595-2.435.192,2.852-1.7,2.628-3.525,2.628-11.889-.064-23.81-.1-35.7-.224-1.25,0-2.467-.737-4.166-1.314a6.861,6.861,0,0,1-1.346.993C433.9,419.77,430.213,418.3,429.508,414.675Zm89.824,25.092c-.256-1.314-.513-2.435-.641-3.557a3.744,3.744,0,0,1,.064-1.891c1.122-2.82.353-4.1-2.66-4.1-10.191-.032-20.349-.032-30.54.032-11.088.064-22.208.192-33.3.288-3.557.032-7.114-.032-10.639.128-1.09.032-2.147.993-3.2.961-2.083-.1-4.134-.833-6.217-.865-6.633-.1-13.267,0-19.932,0h-8.4V440.6c.609.064,1.057.192,1.538.192,7.371-.032,14.741-.032,22.112-.128,9.357-.128,18.715-.385,28.072-.417,10.03-.032,20.093.128,30.123.192,1.474,0,2.98-.128,4.454-.16,3.91-.1,7.819-.192,11.729-.192,3.269,0,6.537.192,9.806.1a6.241,6.241,0,0,0,2.532-1.25,20.871,20.871,0,0,0,1.923-1.506C515.807,440.183,517.057,440.311,519.332,439.767ZM404.9,545.325h24.291c0-5.288-.032-10.319,0-15.35.032-6.826.192-13.651.128-20.477,0-.769-1.186-2.211-1.859-2.211-7.306-.16-14.613-.1-22.56-.1Zm89.792-.256c7.819,0,15.318.032,22.849-.1.545,0,1.538-1.41,1.506-2.147-.288-11.28-.737-22.56-1.154-33.84a21.817,21.817,0,0,0-.352-2.339H494.657C494.689,519.464,494.689,531.994,494.689,545.069ZM406.019,429.48H516.1v-7.114H406.019ZM434.6,455.661c-10.287,0-19.868.032-29.482-.032-1.827,0-2.179,1.025-2.211,2.435-.224,7.819-.449,15.638-.577,23.458,0,.705.833,1.41,1.314,2.147.641-.577,1.731-1.122,1.827-1.795.352-2.4.224-4.9.545-7.306.1-.737,1.122-1.923,1.73-1.955,6.441-.128,12.882-.064,19.292-.1,1.666,0,2.115.7,2.115,2.371a26.712,26.712,0,0,0,.9,6.954c.192.769,1.666,1.474,2.628,1.6.545.1,1.827-1.026,1.827-1.6C434.668,473.222,434.6,464.634,434.6,455.661Zm67.424,15.382c-4.775-3.044-6.153-5.736-5.031-9.357,1.026-3.3,3.878-5.1,7.915-4.935,3.557.128,5.736,1.666,6.249,5.1a9.556,9.556,0,0,1-.833,5.608c-.833,1.538-2.788,2.467-4.294,3.685H516.1c0,2.916-.1,5.672.032,8.428.128,3.2.769,3.621,3.813,3.108,0-7.947-.1-15.863.064-23.778.064-2.468-.929-3.044-3.108-3.044-8.716.064-17.465.064-26.181-.032-2.243-.032-2.916.769-2.884,2.948.128,6.954.064,13.876.128,20.83a23.148,23.148,0,0,0,.449,3.333c4.422.192,4.486.192,4.839-3.813a51.758,51.758,0,0,0,.1-5.9c-.064-1.474.32-2.243,1.955-2.179C497.349,471.107,499.432,471.043,502.028,471.043ZM487.639,545v-3.813c0-7.819.064-15.67-.064-23.49-.1-5.287-.481-10.543-.769-16.375,1.506-1.154,1.859-11.7-.16-16.632h-3.557v60.342C484.755,545,485.909,545,487.639,545Zm-51.177-42.973c-.577,14.965-.128,29.354-.256,43.614,3.237,1.025,3.493-.609,3.461-2.82q-.048-28.937-.032-57.907c-3.749-.32-4.166.032-4.2,3.942,0,3.269-.1,6.537.064,9.806A16.491,16.491,0,0,0,436.462,502.031Zm-.993-44.544c0,7.659-.032,15.286.032,22.913,0,.481.673.961,1.025,1.474.385-.545,1.122-1.122,1.122-1.666-.032-9.9,8.172-19.612,19.42-21.182a5.669,5.669,0,0,0,1.666-.8,5.432,5.432,0,0,0-.128-.705C451.043,457.488,443.48,457.488,435.469,457.488Zm50.472,24.9c.737-1.154,1.09-1.442,1.09-1.763.032-7.338.1-14.645-.032-21.983a2.735,2.735,0,0,0-1.987-1.827c-6.633-.1-13.267,0-19.9.128-.481,0-.929.609-2.211,1.474C477.256,460.212,483.7,468.864,485.941,482.387Zm7.531,62.585a7.6,7.6,0,0,0,.32-1.186c0-11.7-.064-23.393-.064-35.09,0-1.955-.929-2.5-2.756-2.564-2.211-.064-2.339,1.154-2.307,2.82.064,11.216.1,22.4.16,33.616,0,.769.16,1.506.224,2.4Zm-58.8.513V507.127c-4.422-.705-4.615-.545-4.583,3.525q0,15.911.032,31.821c0,.961.1,1.923.128,3.012ZM399.866,507c-.353,13.235-.705,26.117-1.057,38.968,4.23.417,4.486.192,4.55-3.365.1-5.352.32-10.671.385-16.023.064-6.473.032-12.946.032-19.58Zm27.687-33.36H407.942c-.1,1.923-.16,3.653-.256,5.384,2.756.16,5.127.32,7.531.481v.769h-7.435l-.385.769c.609.545,1.186,1.506,1.795,1.538,6.313.128,12.594.064,18.939.064C427.906,479.311,427.714,476.523,427.553,473.639ZM519.2,506.71c0,1.57-.032,2.948,0,4.326.32,10.479.705,20.958.993,31.4.064,1.763.449,2.852,2.532,2.628,1.827-.192,2.436-.865,2.307-2.852q-1.154-16.391-1.987-32.847C522.954,506.646,521.832,505.941,519.2,506.71Zm-23.97,39.609c-.064.961-.1,1.73-.16,2.5-.192,4.23-.1,4.358,4.134,4.23s8.492-.352,12.722-.577c2.628-.16,5.256-.417,7.819-.609v-5.544Zm-.737-45.665c6.986,0,13.491.064,20-.1.609,0,1.666-1.25,1.7-1.955.16-3.653-.1-7.306.064-10.96.1-2.435-.705-3.333-3.172-3.269-6.281.128-12.562.032-18.619.032C494.5,489.758,494.5,495.077,494.5,500.653Zm-90.113,51.5a2.443,2.443,0,0,0,.673.192c7.371.064,14.773.1,22.144.16,2.435.032,2.147-1.731,2.211-3.333.064-1.763-.352-2.82-2.435-2.788-6.057.1-12.081.224-18.138.032-4.647-.128-5.1-1.089-4.743,5.288A2.743,2.743,0,0,1,404.384,552.151Zm4.518-56.945c4.294,0,8.428.1,12.562-.032,5.384-.16,5.256-.256,5.223-5.576,0-2.339-.961-2.884-3.012-2.756-2.66.16-5.32.16-7.979.192C407.91,487.13,407.91,487.13,408.9,495.206ZM437.552,400h46.4c.064-.32.128-.641.192-.929a9.084,9.084,0,0,0-2.275-.769c-3.076-.16-6.73.833-9.069-.545-3.589-2.115-7.05-.993-10.511-1.314a34.581,34.581,0,0,0-7.723-.032c-5.608.769-11.184,1.891-16.76,2.884C437.776,399.325,437.744,399.485,437.552,400ZM519.621,454.6h-83.96c-.032.417-.032.865-.064,1.282.961.1,1.955.32,2.916.32,5.544.032,11.088,0,16.664-.032,4.518,0,4.486-.032,5.223,4.454.1.513.673.929,1.025,1.41.352-.481.929-.961.993-1.474.128-1.346.032-2.692.032-4.55C481.582,455.565,500.457,455.084,519.621,454.6ZM420.279,485.88v-.1H406.692c0,4.422.128,8.556-.064,12.722-.1,2.179.769,2.724,2.756,2.692,4.358-.064,8.716.032,13.075.032h6.025V485.784a29.642,29.642,0,0,0-.609,8.2c.064,1.827-.609,2.435-2.4,2.371-3.365-.1-6.73-.032-10.126.032-8.556.16-8.524.192-8.076-8.268.1-1.634.609-2.307,2.275-2.275C413.133,485.944,416.722,485.88,420.279,485.88Zm74.41-7.05c6.377,0,12.37.064,18.394-.128.545-.032,1.442-1.634,1.442-2.5s-.929-2.468-1.474-2.5c-5.928-.192-11.857-.128-18.01-.128C494.914,475.465,494.817,476.972,494.689,478.83Zm-60.214,5.736c-4.807-.32-4.871-.289-4.9,4.2,0,2.98,0,5.928.032,8.909.032,4.038.385,4.294,4.871,3.493Zm54.093-.064c0,4.839.032,9.55,0,14.26,0,1.634.353,2.66,2.307,2.564,1.763-.1,2.4-.865,2.339-2.6-.1-3.557,0-7.114-.032-10.639C493.151,484.406,493.023,484.278,488.569,484.5Zm3.813-72.552c-.064-2.5-2.179-4.294-5.063-4.294a4.471,4.471,0,0,0-4.775,4.551,5.644,5.644,0,0,0,5.448,4.9C490.3,417.014,492.446,414.482,492.382,411.951ZM401.4,486.842v14.9c1.795.192,3.813.929,3.942-1.73.192-4.326.032-8.652.032-13.139C404.1,486.842,403.039,486.842,401.4,486.842ZM504.527,468a4.141,4.141,0,0,0,4.2-4.07,4.214,4.214,0,0,0-4.326-4.55c-2.4-.032-4.935,2.083-5,4.166C499.336,465.563,502.028,467.9,504.527,468Zm16.76,16.6c-2.275-.641-3.333.192-3.3,2.4.032,3.942,0,7.883.224,11.825.032.737,1.218,1.795,2.019,2.019,1.57.417,1.923-.705,1.827-2.147C521.768,494.02,521.544,489.309,521.287,484.6Zm-6.569-2.5c.064-.288.16-.577.224-.865-.577-.352-1.154-.993-1.731-.993-5.832-.032-11.633,0-17.465.128-.545,0-1.026,1.025-1.7,1.73Zm-32.014-.577c1.218-5.768-3.2-13.684-9.518-17.882-3.589-2.371-7.114-3.2-8.364-2.435,3.749,2.339,8.044,4.551,11.793,7.467C480.589,471.78,481.262,476.94,482.7,481.522Zm-76.461,23.393v.7h22.849v-.7Zm33.616-24.932c.673-4.711,2.307-9.2,6.185-12.049,3.717-2.756,8.043-4.679,11.665-6.73C450.018,460.34,439.186,470.37,439.859,479.984ZM467,395.095c-3.878-3.653-10.287-3.525-12.37,0Zm22.08,157.729c1.762-.577,3.781-.641,4.358-1.6.673-1.122.737-3.525-.032-4.422-.737-.865-2.916-.545-4.679-.8C488.825,548.53,488.953,550.356,489.081,552.824Zm-1.57-6.345c-4.679-.865-5.384.16-4.07,5.352,1.282.256,2.6.513,4.07.8Zm-57.939-.449c.513,2.66.833,4.39,1.186,6.153,1.314-.256,3.2-.1,3.781-.865.705-.993.929-3.269.256-4.07C434.059,546.319,432.04,546.511,429.572,546.03Zm95.849,6.441v-3.878c-.032-2.211-2.692-3.685-3.493-2.019s-.513,3.878-.7,5.928C522.954,552.471,524.075,552.471,525.421,552.471Zm-11.408-79.89V472.1H495.138v.481ZM402.782,547.793c-4.1-1.186-4.775-.352-3.717,4.551h3.461C402.622,550.709,402.686,549.235,402.782,547.793ZM513.051,442.811c.032-.128.032-.288.064-.417h-19v.417ZM439.41,552.119c.641-4.839.032-5.992-2.852-4.743C435.789,551.959,436.142,552.632,439.41,552.119ZM402.718,448.227c.064,1.314.128,2.339.192,3.845,1.506-.288,2.948-.256,4.006-.865.449-.256.064-1.891.064-2.98ZM480.2,547.568c.064.032.1.064.16.1V520.842h-.16ZM517.858,447.3c-1.25,1.346-1.923,2.051-2.6,2.756.8.449,1.6,1.186,2.435,1.218.673.032,1.41-.769,2.115-1.218C519.332,449.348,518.82,448.643,517.858,447.3Zm-22.336,57.266c-.032.16-.1.32-.128.481h21.278v-.481Zm-27.4-39.32a11.793,11.793,0,0,0-11.857,0Zm8.14-16.952h-4.038c-.224.256-.449.481-.641.737.833.865,1.666,1.7,2.532,2.564C474.725,450.63,475.366,449.669,476.263,448.291Zm-55.279.1c.609,1.25,1.154,2.371,1.7,3.493.609-.417,1.763-.833,1.763-1.282C424.477,448.9,423.612,447.842,420.984,448.387Zm-4.743.513c-.417-.352-.8-.7-1.218-1.09l-2.6,1.923c.673.705,1.346,1.41,2.051,2.115C415.056,450.886,415.633,449.893,416.241,448.9Zm109.02-6.089V442.3h-8.62v.513Zm-44.287.128c.032-.128.064-.256.1-.417H471.9v.417Zm-47.844,5.993c-.449-.288-.9-.577-1.378-.9-.673.769-1.346,1.538-2.051,2.307.7.513,1.41,1.026,2.115,1.506C432.264,450.886,432.713,449.925,433.129,448.932Zm34.289.032c-.32-.352-.641-.737-.961-1.09-.833.545-1.634,1.057-2.468,1.6.449.705.929,1.378,1.378,2.083C466.04,450.694,466.713,449.829,467.418,448.964Zm34.1.192c-.224-.192-.449-.417-.673-.609h-3.333c-.16.224-.288.449-.449.7a9.67,9.67,0,0,0,2.692,1.859C500.137,451.207,500.938,449.861,501.515,449.156Zm-45.024-1.25c-.545.961-1.218,1.6-1.09,2.051.192.673.929,1.186,1.41,1.762l1.827-1.923C458.029,449.316,457.452,448.8,456.491,447.906Zm-9.069.1c-.385.289-.769.577-1.122.865.577.993,1.186,1.987,1.763,2.98.545-.577,1.122-1.154,1.666-1.73Q448.527,449.06,447.422,448Zm45.857,1.634c-1.154-.673-1.763-1.314-2.211-1.218-.641.16-1.154.865-1.73,1.314.449.513.929,1.474,1.378,1.442C491.389,451.175,492,450.47,493.279,449.637Zm-53.933-1.506c-.417.321-.833.673-1.25.993.513.9,1.057,1.795,1.57,2.692.545-.577,1.666-1.41,1.538-1.731C440.885,449.316,440.019,448.771,439.346,448.13Zm-4.07-1.987c-.32.1-.641.16-.961.256a23.747,23.747,0,0,0,.545,3.365c.064.16,1.186.032,1.795.032C436.174,448.579,435.725,447.361,435.276,446.144Z" transform="translate(1165.4 -1591.6)"/><path class="a" d="M641,833.247h10c-.032-.545-.289-1.666-.064-1.795,2.4-1.154,1.859-3.365,1.859-5.191,0-4.551-.224-9.1-.384-13.651-.032-.577-.128-1.186-.192-1.891-2.884.032-3.365-1.795-3.172-4.1a3.247,3.247,0,0,1,.385-1.7c1.186-1.57,2.532-3.012,3.814-4.518a24.717,24.717,0,0,1,.961,4.967c-.032,8.2-.192,16.439-.417,24.643-.064,2.275,1.025,2.884,3.076,2.852,3.621-.1,7.242-.032,11.472-.032C665.835,834.657,645.39,834.881,641,833.247Z" transform="translate(973.873 -1869.716)"/><path class="a" d="M964.242,826.415c-3.2-.353-4.2-4.422-7.883-2.916-2.435-3.237-5.159-1.282-7.915-.545-.737.192-1.763-.577-3.044-1.058a25.379,25.379,0,0,1-1.378,2.275,3.857,3.857,0,0,1-1.378,1.314,16.906,16.906,0,0,0-3.813,2.051c-2.339-.9-3.3.705-4.2,2.692-.577-1.923-.032-3.557,1.731-3.909,1.6-.32,2.628-1.378,3.877-1.891a10.442,10.442,0,0,0,4.454-3.365c.192-.256.833-.545,1.026-.417,2.788,1.666,5.512-.577,8.2-.032,2.051.385,3.813,2.307,6.217,1.186.128-.064.641.833,1.026,1.282C962.223,824.139,963.249,825.293,964.242,826.415Z" transform="translate(774.488 -1883.393)"/><path class="a" d="M921.325,882.706c-3.974-2.98-7.819-1.859-10.543,2.884-1.25-4.358,3.589-6.89,10.415-5.32,1.026-1.186,1.923-3.172,4.1-1.314.288.224,1.378-.417,2.083-.737,1.794-.8,3.14-.417,3.846.929-1.923.513-3.621,1.121-5.352,1.41-.7.1-1.506-.513-2.435-.833C922.8,880.623,922.126,881.553,921.325,882.706Z" transform="translate(790.678 -1922.316)"/><path class="a" d="M1003.244,862.487c-1.506.192-3.044.32-4.551.545-2.243.385-4.679,1.763-5.7-1.987-.128-.417-2.179-3.076-4.711-1.795-1.057.545-2.82-.385-4.679-.7.513-.449,1.122-1.282,1.506-1.186,2.147.545,4.55-1.025,6.634,1.314.961,1.058,3.076,1.09,3.429,3.173a9.709,9.709,0,0,0,2.436,0c1.891-.1,3.781-.224,5.672-.321A9.408,9.408,0,0,1,1003.244,862.487Z" transform="translate(741.061 -1908.409)"/><path class="a" d="M427.1,880.817c1.346-2.4,3.4-1.987,6.537-.1,2.66-1.891,5.416-3.846,8.62-6.121a7.576,7.576,0,0,1-.545,2.788c-.481.833-1.474,1.346-2.6,2.275-1.795.737-4.006,1.6-6.569,2.628-1.057-.769-2.468-2.82-4.39-.385-.352-.385-.673-.8-1.025-1.186A.322.322,0,0,1,427.1,880.817Z" transform="translate(1119.227 -1920.138)"/><path class="a" d="M369.165,896.844c1.25.609,2.243,1.122,3.2,1.6-.1.289-.224.577-.321.9-1.346-.609-2.692-1.186-3.974-1.923-.256-.128-.32-.961-.16-1.346.513-1.186,5.448-1.506,6.505-.481-.833.192-1.7.385-2.532.609C371.087,896.364,370.318,896.556,369.165,896.844Z" transform="translate(1159.505 -1933.986)"/><path class="a" d="M614.191,531.869H598.2V531.1h15.991Z" transform="translate(1002.957 -1686.715)"/><path class="a" d="M520.258,531.822a37.917,37.917,0,0,0-5.031-.321,32.777,32.777,0,0,0-4.743.961c0-.032-.16-.769-.385-1.762h10.159Z" transform="translate(1063.787 -1686.443)"/><path class="a" d="M614.953,526.041H600.5V525.4h14.485C614.985,525.624,614.953,525.817,614.953,526.041Z" transform="translate(1001.394 -1682.842)"/><path class="a" d="M528.61,611.835a7.02,7.02,0,0,1-7.21-7.018c.032-4.2,3.237-7.05,7.915-7.018,4.486.032,6.922,2.564,6.858,7.114C536.109,609.143,533.16,611.835,528.61,611.835Zm.865-2.82a4.242,4.242,0,0,0,4.006-4.583,4.1,4.1,0,0,0-4.2-4.038c-2.6-.032-5.159,2.147-5.1,4.358C524.22,606.74,527.1,609.047,529.475,609.015Zm-5.544-.705c1.955,2.532,3.813,3.076,6.249,2.115C528.321,609.785,526.078,609.047,523.931,608.31Z" transform="translate(1055.147 -1732.04)"/><path class="a" d="M785.219,685.073c6.153,0,12.177-.064,18.17.1.609,0,1.186,1.218,1.763,1.891.1.128.032.385.064.577.7,8.492.7,8.492-7.691,8.524-3.172,0-6.345-.064-9.518-.064-1.923,0-2.916-.705-2.82-2.82C785.315,690.713,785.219,688.15,785.219,685.073Zm1.506,9.614h11.761c5.8,0,5.7,0,5.448-5.864-.1-1.987-.865-2.532-2.724-2.468-2.756.128-5.544.1-8.332.1C785.315,686.515,785.219,686.579,786.725,694.687Z" transform="translate(875.896 -1791.338)"/></g></svg>